<svg width="155" height="39" viewBox="0 0 155 39" fill="none" xmlns="http://www.w3.org/2000/svg">
<path d="M52.3253 11.2754C51.1493 8.22339 48.2933 7.57939 45.2413 7.57939C41.2933 7.60739 36.7853 9.42739 36.7853 14.1594C36.7853 17.6594 39.9773 18.7794 43.5333 19.1994C45.8853 19.4514 47.5933 20.2074 47.5933 21.8034C47.5933 24.1554 45.2973 24.9114 42.7493 24.9114C40.9293 24.9114 38.7173 24.5194 37.3173 21.9714L34.4053 23.5394C35.6933 26.9834 38.7733 28.2994 42.3573 28.2994C47.6213 28.2994 51.4293 26.0034 51.4293 21.4114C51.4293 17.7154 48.0413 16.3434 44.4293 15.8954C42.2733 15.6154 40.4813 15.1954 40.4813 13.7114C40.4813 12.1714 41.9933 10.7994 45.0173 10.7994C47.1453 10.7994 48.6853 11.7514 49.1613 12.8714L52.3253 11.2754ZM57.9844 27.8794H61.6804L64.5364 11.6394H70.7524L71.3404 8.27939C65.6564 8.27939 60.8684 8.27939 55.2124 8.27939L54.6244 11.6394H60.8404L57.9844 27.8794ZM88.0682 27.6274L83.3082 20.9634C87.9562 20.0394 89.4402 16.5394 89.4402 13.7954C89.4402 10.8554 87.4802 8.27939 83.4202 8.27939C80.3122 8.27939 77.2322 8.25139 74.1242 8.25139L70.6522 27.8794H74.3482L75.4962 21.3274H79.2482L83.7842 27.8794H88.0122L88.0682 27.6274ZM82.8322 11.5834C84.8482 11.5834 85.6882 13.0114 85.6882 14.3554C85.6882 16.0634 84.4002 17.9954 81.7122 17.9954H76.0842L77.2042 11.5834H82.8322ZM94.7466 27.8794L98.1906 8.27939H94.5226L91.0786 27.8794H94.7466ZM116.47 27.9074H120.166L123.61 8.30739H119.382L111.766 16.7354L107.118 8.30739H102.862L99.4185 27.9074H103.114L105.634 13.6554L110.366 22.1954H111.094L118.99 13.6834L116.47 27.9074ZM128.543 27.8794L131.987 8.27939H128.319L124.875 27.8794H128.543ZM142.511 15.0834L138.871 8.27939H134.895L134.867 8.44739L139.711 17.5754L131.003 27.7674L130.975 27.8794H135.315L141.363 20.6834L145.143 27.8794H149.119L149.147 27.7674L144.079 18.1074L152.507 8.44739L152.535 8.27939H148.447L142.511 15.0834Z" fill="#12C6B2"/>
<path d="M5.24953 19.5826C3.07318 18.4644 3.07923 15.3512 5.2599 14.2408L24.3097 4.54053C26.3079 3.52306 28.675 4.97703 28.6706 7.21917L28.6329 26.687C28.6285 28.9292 26.2558 30.3748 24.2616 29.3502L5.24953 19.5826Z" fill="#12C6B2"/>
</svg>
